<?xml version="1.0" standalone="no"?>
<!DOCTYPE svg PUBLIC "-//W3C//DTD SVG 20010904//EN"
 "http://www.w3.org/TR/2001/REC-SVG-20010904/DTD/svg10.dtd">
<svg version="1.0" xmlns="http://www.w3.org/2000/svg"
 width="800.000000pt" height="800.000000pt" viewBox="0 0 800.000000 800.000000"
 preserveAspectRatio="xMidYMid meet">
<metadata>
Created by potrace 1.11, written by Peter Selinger 2001-2013
</metadata>
<g transform="translate(0.000000,800.000000) scale(0.100000,-0.100000)"
fill="#000000" stroke="none">
<path d="M1295 7993 c-16 -2 -64 -11 -105 -19 -41 -9 -85 -18 -98 -20 -47 -9
-179 -57 -250 -90 -41 -19 -78 -34 -83 -34 -5 0 -9 -4 -9 -8 0 -5 -12 -14 -27
-21 -31 -14 -131 -80 -154 -101 -9 -8 -35 -30 -58 -49 -110 -88 -239 -244
-320 -386 -44 -76 -127 -271 -134 -315 -2 -14 -7 -32 -10 -40 -3 -8 -10 -37
-16 -65 -6 -27 -14 -66 -18 -85 -4 -19 -8 -1250 -10 -2735 -2 -2592 -1 -2704
17 -2805 10 -58 23 -117 29 -132 6 -16 9 -28 6 -28 -7 0 46 -142 85 -227 46
-99 112 -202 187 -295 59 -74 73 -89 155 -163 81 -73 93 -82 185 -142 146 -95
295 -157 483 -201 l115 -27 2700 -2 c2679 -2 2701 -2 2820 18 416 71 795 326
996 669 18 30 39 63 47 73 8 9 12 17 8 17 -3 0 0 10 8 23 49 76 127 323 143
457 10 80 11 5417 1 5480 -15 94 -30 157 -77 310 -20 66 -129 268 -186 346
-109 148 -221 256 -375 359 -90 60 -242 140 -285 150 -11 2 -40 12 -65 21 -25
9 -103 29 -175 45 l-130 28 -2685 -1 c-1477 -1 -2698 -3 -2715 -5z"/>
</g>
</svg>
